<svg xmlns="http://www.w3.org/2000/svg" viewBox="0 0 120 120" fill="none">
  <!-- Outer ring -->
  <circle cx="60" cy="60" r="56" stroke="#35D07F" stroke-width="3" opacity="0.3"/>
  <circle cx="60" cy="60" r="48" stroke="#35D07F" stroke-width="2" opacity="0.15"/>
  
  <!-- Shield shape -->
  <path d="M60 18 L92 36 L92 66 C92 84 76 98 60 104 C44 98 28 84 28 66 L28 36 Z" 
        fill="#35D07F" fill-opacity="0.08" stroke="#35D07F" stroke-width="2.5"/>
  
  <!-- Inner eye/scan motif -->
  <ellipse cx="60" cy="56" rx="20" ry="14" stroke="#35D07F" stroke-width="2" fill="none"/>
  <circle cx="60" cy="56" r="7" fill="#35D07F"/>
  <circle cx="60" cy="56" r="3" fill="#0a0a0a"/>
  
  <!-- ZK lightning bolt -->
  <path d="M55 72 L62 72 L58 82 L68 72 L61 72 L65 62" stroke="#FCFF52" stroke-width="2" stroke-linecap="round" stroke-linejoin="round" fill="none"/>
  
  <!-- Scan lines -->
  <line x1="38" y1="42" x2="44" y2="42" stroke="#35D07F" stroke-width="1.5" opacity="0.5"/>
  <line x1="76" y1="42" x2="82" y2="42" stroke="#35D07F" stroke-width="1.5" opacity="0.5"/>
  <line x1="38" y1="70" x2="44" y2="70" stroke="#35D07F" stroke-width="1.5" opacity="0.5"/>
  <line x1="76" y1="70" x2="82" y2="70" stroke="#35D07F" stroke-width="1.5" opacity="0.5"/>
</svg>
